<svg xmlns="http://www.w3.org/2000/svg" viewBox="0 0 512 512">
  <path class="star" fill="#ffce2d" d="M454.154 139.122l-94.927-20.681-49.003-83.889-49.003 83.889-94.927 20.681 64.643 72.527-9.666 96.671 88.953-39.065 88.953 39.065-9.666-96.671z"/>
  <path class="star_left" fill="#ffab2d" d="M310.224 269.255l88.953 39.065-9.666-96.671 64.643-72.527-94.927-20.681-49.003-83.889"/>
  <path class="hand" fill="#ffe3ba" d="M406 344.208v-14.269l-91.224-19.359-43.276-24.412H170.489l-63.693 35.098H99v123.116h54.517l48.477 32.318h195.612L512 413.973v-69.765z"/>
  <path fill="#b7e4f8" d="M0 286.108h121.67v191.34H0z"/>
  <path fill="#ffcd81" d="M406 360.779H276v30h160v-46.571h-30z"/>
  <path fill="#93d6f4" d="M60.833 286.108h60.833v191.34H60.833z"/>
  <path fill="#388cb2" d="M42.01 362.958h37.638v37.638H42.01z"/>
</svg>
